<svg viewBox="0 0 400 400" xmlns="http://www.w3.org/2000/svg">
  <rect width="400" height="400" fill="#E8EDE0"/>
  <!-- Shadow -->
  <ellipse cx="202" cy="348" rx="125" ry="13" fill="rgba(28,46,28,0.12)"/>

  <!-- Back bowl (largest, sage) -->
  <path d="M62 165 Q62 295 202 310 Q342 295 342 165 Z" fill="#4a8060"/>
  <ellipse cx="202" cy="165" rx="140" ry="28" fill="#3A6B4A"/>
  <ellipse cx="202" cy="163" rx="140" ry="28" fill="none" stroke="rgba(255,255,255,0.12)" stroke-width="3"/>
  <!-- Back bowl inner -->
  <ellipse cx="202" cy="165" rx="120" ry="22" fill="#2d5438"/>
  <!-- Back bowl sheen -->
  <path d="M80 175 Q120 210 140 290 Q100 270 68 200 Z" fill="rgba(255,255,255,0.06)"/>

  <!-- Mid bowl (medium, lighter sage) -->
  <path d="M88 192 Q88 298 202 312 Q316 298 316 192 Z" fill="#5a9070"/>
  <ellipse cx="202" cy="192" rx="114" ry="23" fill="#4A7B5A"/>
  <ellipse cx="202" cy="190" rx="114" ry="23" fill="none" stroke="rgba(255,255,255,0.1)" stroke-width="2.5"/>
  <ellipse cx="202" cy="192" rx="96" ry="18" fill="#3a6a4a"/>
  <path d="M105 200 Q138 235 155 305 Q118 285 92 215 Z" fill="rgba(255,255,255,0.05)"/>

  <!-- Front bowl (smallest, freshest) -->
  <path d="M112 218 Q112 305 202 318 Q292 305 292 218 Z" fill="#6BAF82"/>
  <ellipse cx="202" cy="218" rx="90" ry="19" fill="#5a9f72"/>
  <ellipse cx="202" cy="216" rx="90" ry="19" fill="none" stroke="rgba(255,255,255,0.15)" stroke-width="2"/>
  <ellipse cx="202" cy="218" rx="73" ry="14" fill="#4a8f62"/>
  <!-- Sheen -->
  <path d="M126 225 Q154 260 168 315 Q138 295 116 242 Z" fill="rgba(255,255,255,0.09)"/>
  <!-- Rim highlight -->
  <path d="M118 214 Q202 198 286 214" fill="none" stroke="rgba(255,255,255,0.22)" stroke-width="2.5" stroke-linecap="round"/>
</svg>
