<svg viewBox="0 0 400 400" xmlns="http://www.w3.org/2000/svg">
  <rect width="400" height="400" fill="#E8EDE0"/>
  <!-- Shadow -->
  <ellipse cx="200" cy="355" rx="130" ry="11" fill="rgba(28,46,28,0.10)"/>

  <!-- ── Spatula (left) ── -->
  <!-- Handle -->
  <rect x="80" y="60" width="18" height="155" rx="9" fill="#1C2E1C"/>
  <rect x="82" y="62" width="7" height="151" rx="4" fill="rgba(255,255,255,0.07)"/>
  <!-- Rivet ring -->
  <ellipse cx="89" cy="215" rx="9" ry="5" fill="#3A6B4A"/>
  <!-- Neck -->
  <rect x="85" y="220" width="8" height="22" rx="3" fill="#6BAF82"/>
  <!-- Spatula head -->
  <path d="M72 242 Q72 318 89 322 Q106 318 106 242 Z" fill="#6BAF82"/>
  <path d="M76 248 Q76 312 89 316 Q102 312 102 248 Z" fill="rgba(255,255,255,0.12)"/>
  <!-- Notch cut-outs -->
  <circle cx="82" cy="270" r="4" fill="#E8EDE0"/>
  <circle cx="96" cy="270" r="4" fill="#E8EDE0"/>
  <circle cx="82" cy="288" r="4" fill="#E8EDE0"/>
  <circle cx="96" cy="288" r="4" fill="#E8EDE0"/>

  <!-- ── Ladle (centre) ── -->
  <!-- Handle -->
  <rect x="191" y="50" width="18" height="190" rx="9" fill="#1C2E1C"/>
  <rect x="193" y="52" width="7" height="186" rx="4" fill="rgba(255,255,255,0.07)"/>
  <!-- Neck -->
  <rect x="195" y="240" width="10" height="18" rx="4" fill="#6BAF82"/>
  <!-- Bowl -->
  <path d="M160 258 Q160 322 200 328 Q240 322 240 258 Z" fill="#6BAF82"/>
  <ellipse cx="200" cy="258" rx="40" ry="12" fill="#5a9f72"/>
  <path d="M168 266 Q168 316 200 322 Q200 322 200 300 Q185 296 172 272 Z" fill="rgba(255,255,255,0.08)"/>

  <!-- ── Slotted spoon (right) ── -->
  <!-- Handle -->
  <rect x="302" y="60" width="18" height="160" rx="9" fill="#1C2E1C"/>
  <rect x="304" y="62" width="7" height="156" rx="4" fill="rgba(255,255,255,0.07)"/>
  <!-- Ring -->
  <ellipse cx="311" cy="220" rx="9" ry="5" fill="#3A6B4A"/>
  <!-- Neck -->
  <rect x="307" y="225" width="8" height="20" rx="3" fill="#6BAF82"/>
  <!-- Spoon head -->
  <path d="M288 245 Q282 312 311 320 Q340 312 334 245 Z" fill="#6BAF82"/>
  <path d="M292 252 Q288 308 311 315 Q334 308 330 252 Z" fill="rgba(255,255,255,0.1)"/>
  <!-- Slots -->
  <rect x="303" y="258" width="16" height="5" rx="2.5" fill="#E8EDE0"/>
  <rect x="301" y="271" width="20" height="5" rx="2.5" fill="#E8EDE0"/>
  <rect x="303" y="284" width="16" height="5" rx="2.5" fill="#E8EDE0"/>
  <rect x="305" y="297" width="12" height="5" rx="2.5" fill="#E8EDE0"/>
</svg>
